<svg width="666" height="465" viewBox="0 0 666 465" fill="none" xmlns="http://www.w3.org/2000/svg">
<g clip-path="url(#clip0)">
<path d="M666 190.98H664.875V156.752C664.875 154.151 664.414 151.575 663.518 149.171C662.621 146.768 661.308 144.584 659.652 142.744C657.996 140.905 656.03 139.445 653.866 138.45C651.702 137.454 649.383 136.942 647.041 136.942H581.76C579.418 136.942 577.099 137.454 574.935 138.45C572.772 139.445 570.806 140.905 569.15 142.744C567.494 144.584 566.18 146.768 565.284 149.171C564.387 151.575 563.926 154.151 563.926 156.752V344.529C563.926 347.131 564.387 349.707 565.284 352.11C566.18 354.514 567.494 356.698 569.15 358.537C570.806 360.377 572.772 361.836 574.935 362.832C577.099 363.827 579.418 364.34 581.76 364.34H647.041C649.383 364.34 651.702 363.827 653.866 362.832C656.03 361.836 657.996 360.377 659.652 358.537C661.308 356.698 662.621 354.514 663.518 352.11C664.414 349.707 664.875 347.131 664.875 344.529V215.344H666V190.98Z" fill="#3F3D56"/>
<path d="M661.08 157.916V345.42C661.08 349.344 659.677 353.108 657.179 355.882C654.681 358.657 651.293 360.216 647.76 360.216H582.165C580.416 360.216 578.684 359.833 577.069 359.09C575.453 358.346 573.985 357.256 572.749 355.882C571.513 354.508 570.532 352.877 569.863 351.082C569.194 349.287 568.85 347.363 568.851 345.42V157.916C568.851 153.994 570.254 150.232 572.751 147.458C575.247 144.685 578.634 143.127 582.165 143.127H590.123C589.733 144.194 589.584 145.351 589.69 146.497C589.797 147.643 590.155 148.742 590.734 149.698C591.312 150.654 592.093 151.437 593.008 151.98C593.923 152.522 594.944 152.806 595.981 152.807H633.381C634.419 152.809 635.442 152.527 636.358 151.986C637.275 151.445 638.058 150.661 638.637 149.704C639.216 148.747 639.574 147.646 639.679 146.499C639.784 145.352 639.633 144.194 639.239 143.127H647.76C651.292 143.126 654.679 144.684 657.177 147.458C659.675 150.231 661.079 153.993 661.08 157.916Z" fill="#D0CDE1"/>
<path d="M648.662 239.124H572.409V261.98H648.662V239.124Z" fill="#02E4C0"/>
<path d="M651.688 257.947H577.856C577.375 257.946 576.913 257.734 576.573 257.356C576.233 256.978 576.041 256.465 576.041 255.93V235.763C576.041 235.228 576.233 234.715 576.573 234.337C576.913 233.959 577.375 233.747 577.856 233.746H651.688C652.169 233.747 652.631 233.959 652.971 234.337C653.312 234.715 653.503 235.228 653.503 235.763V255.93C653.503 256.465 653.312 256.978 652.971 257.356C652.631 257.734 652.169 257.946 651.688 257.947ZM577.856 235.09C577.696 235.091 577.542 235.162 577.428 235.288C577.315 235.414 577.251 235.585 577.251 235.763V255.93C577.251 256.108 577.315 256.279 577.428 256.405C577.542 256.532 577.696 256.602 577.856 256.602H651.688C651.848 256.602 652.002 256.532 652.116 256.405C652.229 256.279 652.293 256.108 652.293 255.93V235.763C652.293 235.585 652.229 235.414 652.116 235.288C652.002 235.162 651.848 235.091 651.688 235.09H577.856Z" fill="#3F3D56"/>
<path d="M590.565 251.897H580.882V253.241H590.565V251.897Z" fill="#3F3D56"/>
<path d="M603.879 251.897H594.196V253.241H603.879V251.897Z" fill="#3F3D56"/>
<path d="M617.193 251.897H607.51V253.241H617.193V251.897Z" fill="#3F3D56"/>
<path d="M630.507 251.897H620.824V253.241H630.507V251.897Z" fill="#3F3D56"/>
<path d="M643.821 251.897H634.138V253.241H643.821V251.897Z" fill="#3F3D56"/>
<path opacity="0.1" d="M661.08 326.355V345.42C661.08 349.344 659.677 353.108 657.179 355.882C654.681 358.657 651.293 360.216 647.76 360.216H582.165C580.416 360.216 578.684 359.833 577.069 359.089C575.453 358.346 573.985 357.256 572.749 355.882C571.513 354.508 570.532 352.877 569.863 351.082C569.194 349.287 568.85 347.363 568.851 345.42V257.718L661.08 326.355Z" fill="black"/>
<path d="M351.25 327H65V482.962H351.25V327Z" fill="#D0CDE1"/>
<path opacity="0.1" d="M273.905 465H61.6383C61.3176 464.999 61.0102 464.857 60.7835 464.605C60.5567 464.353 60.4289 464.012 60.4279 463.655V310.382C60.4289 310.026 60.5567 309.685 60.7835 309.433C61.0102 309.181 61.3176 309.039 61.6383 309.038H64.3253L273.905 465Z" fill="black"/>
<path d="M636.558 329.878H192.962V331.222H636.558V329.878Z" fill="#3F3D56"/>
<path d="M333.207 2.90261H206.429V0H148.942V2.90261H21.6408C20.5146 2.90261 19.3994 3.14901 18.359 3.62774C17.3186 4.10647 16.3732 4.80815 15.5769 5.69273C14.7805 6.5773 14.1489 7.62745 13.7179 8.7832C13.2869 9.93895 13.0651 11.1777 13.0651 12.4287V205.268C13.0651 207.794 13.9686 210.217 15.5769 212.003C17.1851 213.79 19.3664 214.794 21.6408 214.794H333.207C335.482 214.794 337.663 213.79 339.271 212.003C340.88 210.217 341.783 207.794 341.783 205.268V12.4287C341.783 11.1777 341.561 9.93895 341.13 8.7832C340.699 7.62745 340.068 6.5773 339.271 5.69273C338.475 4.80815 337.53 4.10647 336.489 3.62774C335.449 3.14901 334.334 2.90261 333.207 2.90261V2.90261Z" fill="#3F3D56"/>
<path d="M330.283 19.7351H24.565V211.313H330.283V19.7351Z" fill="#D0CDE1"/>
<path d="M177.163 14.5131C178.895 14.5131 180.298 12.9536 180.298 11.0299C180.298 9.10625 178.895 7.5468 177.163 7.5468C175.431 7.5468 174.027 9.10625 174.027 11.0299C174.027 12.9536 175.431 14.5131 177.163 14.5131Z" fill="#02E4C0"/>
<path d="M115.499 91.2289H108.237C107.756 91.2283 107.294 91.0157 106.954 90.6376C106.614 90.2595 106.422 89.7469 106.422 89.2122V81.1452C106.422 80.6105 106.614 80.0978 106.954 79.7198C107.294 79.3417 107.756 79.129 108.237 79.1284H115.499C115.981 79.129 116.442 79.3417 116.782 79.7198C117.123 80.0978 117.314 80.6105 117.315 81.1452V89.2122C117.314 89.7469 117.123 90.2595 116.782 90.6376C116.442 91.0157 115.981 91.2283 115.499 91.2289V91.2289ZM108.237 80.4729C108.077 80.4732 107.923 80.5441 107.809 80.6701C107.696 80.7961 107.632 80.9669 107.632 81.1452V89.2122C107.632 89.3904 107.696 89.5613 107.809 89.6873C107.923 89.8133 108.077 89.8842 108.237 89.8844H115.499C115.66 89.8842 115.813 89.8133 115.927 89.6873C116.04 89.5613 116.104 89.3904 116.104 89.2122V81.1452C116.104 80.9669 116.04 80.7961 115.927 80.6701C115.813 80.5441 115.66 80.4732 115.499 80.4729H108.237Z" fill="#3F3D56"/>
<path d="M245.008 89.8844H107.027V91.2289H245.008V89.8844Z" fill="#3F3D56"/>
<path d="M241.376 126.858H209.302V137.614H241.376V126.858Z" fill="#02E4C0"/>
<path d="M243.797 134.925H214.143C213.662 134.925 213.201 134.712 212.86 134.334C212.52 133.956 212.328 133.443 212.328 132.908V124.841C212.328 124.307 212.52 123.794 212.86 123.416C213.201 123.038 213.662 122.825 214.143 122.825H243.797C244.279 122.825 244.74 123.038 245.08 123.416C245.421 123.794 245.612 124.307 245.613 124.841V132.908C245.612 133.443 245.421 133.956 245.08 134.334C244.74 134.712 244.279 134.925 243.797 134.925V134.925ZM214.143 124.169C213.983 124.169 213.829 124.24 213.716 124.366C213.602 124.492 213.538 124.663 213.538 124.841V132.908C213.538 133.087 213.602 133.258 213.716 133.384C213.829 133.51 213.983 133.58 214.143 133.581H243.797C243.958 133.58 244.111 133.51 244.225 133.384C244.338 133.258 244.402 133.087 244.402 132.908V124.841C244.402 124.663 244.338 124.492 244.225 124.366C244.111 124.24 243.958 124.169 243.797 124.169H214.143Z" fill="#3F3D56"/>
<path d="M486.474 138.959H425.956V186.016H486.474V138.959Z" fill="#02E4C0"/>
<path d="M492.526 182.319H434.429C433.787 182.318 433.172 182.035 432.718 181.53C432.264 181.026 432.009 180.343 432.008 179.63V135.261C432.009 134.548 432.264 133.865 432.718 133.361C433.172 132.857 433.787 132.573 434.429 132.572H492.526C493.168 132.573 493.783 132.857 494.237 133.361C494.691 133.865 494.946 134.548 494.947 135.261V179.63C494.946 180.343 494.691 181.026 494.237 181.53C493.783 182.035 493.168 182.318 492.526 182.319V182.319ZM434.429 135.261V179.63H492.528L492.526 135.261H434.429Z" fill="#3F3D56"/>
<path d="M485.869 133.581H483.448C483.448 127.697 481.344 122.054 477.599 117.894C473.854 113.734 468.774 111.396 463.477 111.396C458.181 111.396 453.101 113.734 449.356 117.894C445.61 122.054 443.506 127.697 443.506 133.581H441.086C441.086 126.984 443.445 120.657 447.644 115.993C451.843 111.328 457.539 108.707 463.477 108.707C469.416 108.707 475.111 111.328 479.311 115.993C483.51 120.657 485.869 126.984 485.869 133.581V133.581Z" fill="#3F3D56"/>
<path d="M469.529 152.068C469.53 150.897 469.256 149.746 468.734 148.729C468.212 147.712 467.46 146.865 466.552 146.27C465.645 145.675 464.613 145.354 463.559 145.338C462.505 145.322 461.466 145.612 460.544 146.179C459.623 146.747 458.85 147.571 458.303 148.572C457.757 149.573 457.455 150.715 457.427 151.885C457.4 153.055 457.648 154.213 458.147 155.244C458.646 156.275 459.379 157.144 460.273 157.763V164.979C460.273 165.446 460.356 165.909 460.517 166.341C460.678 166.772 460.914 167.165 461.212 167.495C461.509 167.826 461.862 168.088 462.251 168.267C462.64 168.446 463.057 168.538 463.477 168.538V168.538C464.327 168.538 465.142 168.163 465.743 167.495C466.344 166.828 466.681 165.923 466.681 164.979V157.763C467.552 157.161 468.271 156.322 468.769 155.325C469.267 154.329 469.529 153.207 469.529 152.068V152.068Z" fill="#3F3D56"/>
<path d="M181.766 378.28H172.083V379.624H181.766V378.28Z" fill="#3F3D56"/>
<path d="M195.08 378.28H185.397V379.624H195.08V378.28Z" fill="#3F3D56"/>
<path d="M208.394 378.28H198.711V379.624H208.394V378.28Z" fill="#3F3D56"/>
<path d="M221.708 378.28H212.025V379.624H221.708V378.28Z" fill="#3F3D56"/>
<path d="M235.022 378.28H225.339V379.624H235.022V378.28Z" fill="#3F3D56"/>
<path d="M359.386 453.572H75.5575C74.9157 453.571 74.3003 453.288 73.8465 452.783C73.3927 452.279 73.1374 451.596 73.1367 450.883V297.61C73.1374 296.897 73.3927 296.213 73.8465 295.709C74.3003 295.205 74.9157 294.922 75.5575 294.921H359.386C360.028 294.921 360.643 295.205 361.097 295.709C361.551 296.213 361.806 296.897 361.807 297.61V450.883C361.806 451.596 361.551 452.279 361.097 452.783C360.643 453.288 360.028 453.571 359.386 453.572V453.572ZM75.5575 297.61V450.883H359.388L359.386 297.61H75.5575Z" fill="#3F3D56"/>
<path d="M88.2661 320.466C90.2715 320.466 91.8972 318.66 91.8972 316.433C91.8972 314.205 90.2715 312.399 88.2661 312.399C86.2608 312.399 84.6351 314.205 84.6351 316.433C84.6351 318.66 86.2608 320.466 88.2661 320.466Z" fill="#3F3D56"/>
<path d="M100.975 320.466C102.98 320.466 104.606 318.66 104.606 316.433C104.606 314.205 102.98 312.399 100.975 312.399C98.9695 312.399 97.3438 314.205 97.3438 316.433C97.3438 318.66 98.9695 320.466 100.975 320.466Z" fill="#3F3D56"/>
<path d="M113.684 320.466C115.689 320.466 117.315 318.66 117.315 316.433C117.315 314.205 115.689 312.399 113.684 312.399C111.678 312.399 110.053 314.205 110.053 316.433C110.053 318.66 111.678 320.466 113.684 320.466Z" fill="#3F3D56"/>
<path d="M244.402 387.691H162.703C162.222 387.691 161.76 387.478 161.42 387.1C161.08 386.722 160.888 386.209 160.888 385.674V362.818C160.888 362.283 161.08 361.771 161.42 361.393C161.76 361.014 162.222 360.802 162.703 360.801H244.402C244.884 360.802 245.345 361.014 245.686 361.393C246.026 361.771 246.217 362.283 246.218 362.818V385.674C246.217 386.209 246.026 386.722 245.686 387.1C245.345 387.478 244.884 387.691 244.402 387.691V387.691ZM162.703 362.146C162.543 362.146 162.389 362.217 162.275 362.343C162.162 362.469 162.098 362.64 162.098 362.818V385.674C162.098 385.853 162.162 386.024 162.275 386.15C162.389 386.276 162.543 386.347 162.703 386.347H244.402C244.563 386.347 244.717 386.276 244.83 386.15C244.944 386.024 245.007 385.853 245.008 385.674V362.818C245.007 362.64 244.944 362.469 244.83 362.343C244.717 362.217 244.563 362.146 244.402 362.146H162.703Z" fill="#3F3D56"/>
<path d="M264.978 388.363C270.995 388.363 275.872 382.946 275.872 376.263C275.872 369.58 270.995 364.162 264.978 364.162C258.962 364.162 254.085 369.58 254.085 376.263C254.085 382.946 258.962 388.363 264.978 388.363Z" fill="#02E4C0"/>
<path d="M268.61 387.019C266.335 387.019 264.112 386.27 262.221 384.866C260.33 383.463 258.857 381.468 257.986 379.134C257.116 376.8 256.888 374.232 257.332 371.754C257.776 369.277 258.871 367.001 260.479 365.215C262.087 363.428 264.136 362.212 266.366 361.719C268.597 361.226 270.909 361.479 273.01 362.446C275.111 363.412 276.907 365.05 278.17 367.15C279.434 369.25 280.108 371.72 280.108 374.246C280.104 377.633 278.892 380.879 276.736 383.274C274.581 385.668 271.658 387.015 268.61 387.019V387.019ZM268.61 362.818C266.575 362.818 264.586 363.488 262.894 364.744C261.202 366 259.883 367.785 259.105 369.873C258.326 371.961 258.122 374.259 258.519 376.476C258.916 378.693 259.896 380.729 261.335 382.327C262.774 383.925 264.607 385.014 266.602 385.455C268.598 385.896 270.667 385.67 272.547 384.805C274.427 383.94 276.033 382.475 277.164 380.595C278.294 378.716 278.898 376.506 278.898 374.246C278.895 371.216 277.81 368.311 275.881 366.169C273.952 364.026 271.337 362.821 268.61 362.818V362.818Z" fill="#3F3D56"/>
<path d="M268.771 379.017L262.912 372.508L264.624 370.607L268.448 374.854L279.118 358.01L281.098 359.558L268.771 379.017Z" fill="#3F3D56"/>
<path opacity="0.1" d="M262.503 211.313H24.5648V34.2491L262.503 211.313Z" fill="black"/>
<path d="M350.367 207.827H320.53V205.439C320.53 205.377 320.519 205.316 320.498 205.258C320.477 205.201 320.445 205.149 320.406 205.105C320.366 205.061 320.319 205.026 320.267 205.002C320.216 204.978 320.16 204.966 320.104 204.966H309.875C309.819 204.966 309.763 204.978 309.711 205.002C309.66 205.026 309.613 205.061 309.573 205.105C309.534 205.149 309.502 205.201 309.481 205.258C309.459 205.316 309.448 205.377 309.448 205.439V207.827H303.055V205.439C303.055 205.377 303.044 205.316 303.022 205.258C303.001 205.201 302.969 205.149 302.93 205.105C302.89 205.061 302.843 205.026 302.792 205.002C302.74 204.978 302.684 204.966 302.629 204.966H292.399C292.343 204.966 292.287 204.978 292.236 205.002C292.184 205.026 292.137 205.061 292.097 205.105C292.058 205.149 292.026 205.201 292.005 205.258C291.984 205.316 291.973 205.377 291.973 205.439V207.827H285.579V205.439C285.579 205.377 285.568 205.316 285.547 205.258C285.525 205.201 285.494 205.149 285.454 205.105C285.415 205.061 285.368 205.026 285.316 205.002C285.264 204.978 285.209 204.966 285.153 204.966H274.923C274.867 204.966 274.812 204.978 274.76 205.002C274.708 205.026 274.661 205.061 274.622 205.105C274.582 205.149 274.551 205.201 274.529 205.258C274.508 205.316 274.497 205.377 274.497 205.439V207.827H268.103V205.439C268.103 205.377 268.092 205.316 268.071 205.258C268.049 205.201 268.018 205.149 267.978 205.105C267.939 205.061 267.892 205.026 267.84 205.002C267.788 204.978 267.733 204.966 267.677 204.966H257.447C257.391 204.966 257.336 204.978 257.284 205.002C257.233 205.026 257.186 205.061 257.146 205.105C257.106 205.149 257.075 205.201 257.054 205.258C257.032 205.316 257.021 205.377 257.021 205.439V207.827H250.628V205.439C250.628 205.377 250.617 205.316 250.595 205.258C250.574 205.201 250.542 205.149 250.503 205.105C250.463 205.061 250.416 205.026 250.364 205.002C250.313 204.978 250.257 204.966 250.201 204.966H239.972C239.916 204.966 239.86 204.978 239.809 205.002C239.757 205.026 239.71 205.061 239.67 205.105C239.631 205.149 239.599 205.201 239.578 205.258C239.556 205.316 239.545 205.377 239.545 205.439V207.827H233.152V205.439C233.152 205.377 233.141 205.316 233.119 205.258C233.098 205.201 233.067 205.149 233.027 205.105C232.987 205.061 232.94 205.026 232.889 205.002C232.837 204.978 232.782 204.966 232.726 204.966H222.496C222.44 204.966 222.384 204.978 222.333 205.002C222.281 205.026 222.234 205.061 222.194 205.105C222.155 205.149 222.124 205.201 222.102 205.258C222.081 205.316 222.07 205.377 222.07 205.439V207.827H215.676V205.439C215.676 205.377 215.665 205.316 215.644 205.258C215.622 205.201 215.591 205.149 215.551 205.105C215.512 205.061 215.465 205.026 215.413 205.002C215.361 204.978 215.306 204.966 215.25 204.966H135.117C135.061 204.966 135.006 204.978 134.954 205.002C134.902 205.026 134.855 205.061 134.816 205.105C134.776 205.149 134.745 205.201 134.723 205.258C134.702 205.316 134.691 205.377 134.691 205.439V207.827H128.297V205.439C128.297 205.377 128.286 205.316 128.265 205.258C128.244 205.201 128.212 205.149 128.173 205.105C128.133 205.061 128.086 205.026 128.034 205.002C127.983 204.978 127.927 204.966 127.871 204.966H117.642C117.586 204.966 117.53 204.978 117.478 205.002C117.427 205.026 117.38 205.061 117.34 205.105C117.301 205.149 117.269 205.201 117.248 205.258C117.226 205.316 117.215 205.377 117.215 205.439V207.827H110.822V205.439C110.822 205.377 110.811 205.316 110.789 205.258C110.768 205.201 110.736 205.149 110.697 205.105C110.657 205.061 110.61 205.026 110.559 205.002C110.507 204.978 110.451 204.966 110.395 204.966H100.166C100.11 204.966 100.054 204.978 100.003 205.002C99.9509 205.026 99.904 205.061 99.8644 205.105C99.8248 205.149 99.7934 205.201 99.772 205.258C99.7506 205.316 99.7395 205.377 99.7395 205.439V207.827H93.346V205.439C93.346 205.377 93.335 205.316 93.3135 205.258C93.2921 205.201 93.2607 205.149 93.2211 205.105C93.1816 205.061 93.1346 205.026 93.0828 205.002C93.0311 204.978 92.9757 204.966 92.9197 204.966H82.6901C82.6341 204.966 82.5786 204.978 82.5269 205.002C82.4752 205.026 82.4282 205.061 82.3887 205.105C82.3491 205.149 82.3177 205.201 82.2963 205.258C82.2748 205.316 82.2638 205.377 82.2638 205.439V207.827H75.8702V205.439C75.8702 205.377 75.8592 205.316 75.8378 205.258C75.8164 205.201 75.785 205.149 75.7454 205.105C75.7058 205.061 75.6588 205.026 75.6071 205.002C75.5554 204.978 75.5 204.966 75.444 204.966H65.2143C65.1583 204.966 65.1029 204.978 65.0512 205.002C64.9995 205.026 64.9525 205.061 64.9129 205.105C64.8733 205.149 64.8419 205.201 64.8205 205.258C64.7991 205.316 64.7881 205.377 64.7881 205.439V207.827H58.3945V205.439C58.3945 205.377 58.3835 205.316 58.3621 205.258C58.3407 205.201 58.3093 205.149 58.2697 205.105C58.2301 205.061 58.1831 205.026 58.1314 205.002C58.0797 204.978 58.0243 204.966 57.9683 204.966H47.7386C47.6826 204.966 47.6272 204.978 47.5755 205.002C47.5238 205.026 47.4768 205.061 47.4372 205.105C47.3976 205.149 47.3662 205.201 47.3448 205.258C47.3234 205.316 47.3123 205.377 47.3123 205.439V207.827H40.9188V205.439C40.9188 205.377 40.9078 205.316 40.8863 205.258C40.8649 205.201 40.8335 205.149 40.7939 205.105C40.7544 205.061 40.7074 205.026 40.6557 205.002C40.6039 204.978 40.5485 204.966 40.4925 204.966H30.2628C30.2069 204.966 30.1514 204.978 30.0997 205.002C30.048 205.026 30.001 205.061 29.9615 205.105C29.9219 205.149 29.8905 205.201 29.8691 205.258C29.8476 205.316 29.8366 205.377 29.8366 205.439V207.827H10.2297C8.88631 207.827 7.55608 208.121 6.31496 208.692C5.07383 209.263 3.94612 210.1 2.99621 211.156C2.04629 212.211 1.29278 213.464 0.778687 214.842C0.264597 216.221 -7.94731e-07 217.699 0 219.191V224.329C6.42013e-06 227.343 1.07778 230.233 2.99622 232.364C4.91466 234.495 7.51661 235.692 10.2297 235.692H350.367C351.71 235.692 353.041 235.399 354.282 234.828C355.523 234.256 356.651 233.419 357.601 232.364C358.55 231.309 359.304 230.056 359.818 228.678C360.332 227.299 360.597 225.821 360.597 224.329V219.191C360.597 217.699 360.332 216.221 359.818 214.842C359.304 213.464 358.55 212.211 357.601 211.156C356.651 210.1 355.523 209.263 354.282 208.692C353.041 208.121 351.71 207.827 350.367 207.827V207.827Z" fill="#3F3D56"/>
<path d="M257.111 146.353H97.3439C96.8625 146.353 96.401 146.14 96.0607 145.762C95.7203 145.384 95.5288 144.871 95.5283 144.337V70.3892C95.5288 69.8545 95.7203 69.3418 96.0607 68.9638C96.401 68.5857 96.8625 68.373 97.3439 68.3724H257.111C257.593 68.373 258.054 68.5857 258.394 68.9638C258.735 69.3418 258.926 69.8545 258.927 70.3892V144.337C258.926 144.871 258.735 145.384 258.394 145.762C258.054 146.14 257.593 146.353 257.111 146.353V146.353ZM97.3439 69.7169C97.1834 69.7172 97.0296 69.7881 96.9162 69.9141C96.8027 70.0401 96.7389 70.211 96.7387 70.3892V144.337C96.7389 144.515 96.8027 144.686 96.9162 144.812C97.0296 144.938 97.1834 145.009 97.3439 145.009H257.111C257.272 145.009 257.425 144.938 257.539 144.812C257.652 144.686 257.716 144.515 257.716 144.337V70.3892C257.716 70.211 257.652 70.0401 257.539 69.9141C257.425 69.7881 257.272 69.7172 257.111 69.7169H97.3439Z" fill="#3F3D56"/>
<path d="M115.499 111.396H108.237C107.756 111.396 107.294 111.183 106.954 110.805C106.614 110.427 106.422 109.914 106.422 109.38V101.313C106.422 100.778 106.614 100.265 106.954 99.8873C107.294 99.5092 107.756 99.2965 108.237 99.2959H115.499C115.981 99.2965 116.442 99.5092 116.782 99.8873C117.123 100.265 117.314 100.778 117.315 101.313V109.38C117.314 109.914 117.123 110.427 116.782 110.805C116.442 111.183 115.981 111.396 115.499 111.396V111.396ZM108.237 100.64C108.077 100.641 107.923 100.712 107.809 100.838C107.696 100.964 107.632 101.134 107.632 101.313V109.38C107.632 109.558 107.696 109.729 107.809 109.855C107.923 109.981 108.077 110.052 108.237 110.052H115.499C115.66 110.052 115.813 109.981 115.927 109.855C116.04 109.729 116.104 109.558 116.104 109.38V101.313C116.104 101.134 116.04 100.964 115.927 100.838C115.813 100.712 115.66 100.641 115.499 100.64H108.237Z" fill="#3F3D56"/>
<path d="M245.008 110.052H107.027V111.396H245.008V110.052Z" fill="#3F3D56"/>
<path d="M603.878 181.31H160.282V182.655H603.878V181.31Z" fill="#3F3D56"/>
<path d="M160.282 190.722C164.962 190.722 168.755 186.508 168.755 181.31C168.755 176.113 164.962 171.899 160.282 171.899C155.603 171.899 151.81 176.113 151.81 181.31C151.81 186.508 155.603 190.722 160.282 190.722Z" fill="#3F3D56"/>
<path d="M603.879 190.05C607.555 190.05 610.536 186.739 610.536 182.655C610.536 178.571 607.555 175.26 603.879 175.26C600.202 175.26 597.222 178.571 597.222 182.655C597.222 186.739 600.202 190.05 603.879 190.05Z" fill="#3F3D56"/>
<path d="M636.558 338.617C640.235 338.617 643.215 335.306 643.215 331.222C643.215 327.138 640.235 323.827 636.558 323.827C632.882 323.827 629.901 327.138 629.901 331.222C629.901 335.306 632.882 338.617 636.558 338.617Z" fill="#3F3D56"/>
<path d="M194.778 338.617C198.454 338.617 201.435 335.306 201.435 331.222C201.435 327.138 198.454 323.827 194.778 323.827C191.101 323.827 188.121 327.138 188.121 331.222C188.121 335.306 191.101 338.617 194.778 338.617Z" fill="#3F3D56"/>
</g>
<defs>
<clipPath id="clip0">
<rect width="666" height="465" fill="white"/>
</clipPath>
</defs>
</svg>
